<?xml version="1.0" encoding="utf-8"?>
<!-- Generator: Adobe Illustrator 26.3.1, SVG Export Plug-In . SVG Version: 6.00 Build 0)  -->
<svg version="1.1" id="Calque_2" xmlns="http://www.w3.org/2000/svg" xmlns:xlink="http://www.w3.org/1999/xlink" x="0px" y="0px"
	 viewBox="0 0 141.7 141.7" style="enable-background:new 0 0 141.7 141.7;" xml:space="preserve">
<style type="text/css">
	.st0{fill:#494949;}
	.st1{fill:#E6EF30;}
	.st2{fill:#529CA0;}
	.st3{fill:#20CE7F;}
	.st4{fill:#BC79A7;}
	.st5{fill:#7ABF84;}
	.st6{fill:#7989BC;}
	.st7{fill:#B9BC79;}
	.st8{fill:#2C4436;}
	.st9{fill:#009540;}
	.st10{fill:#197F42;}
	.st11{fill:#5A9300;}
	.st12{fill:#22663E;}
	.st13{fill:#5AB780;}
	.st14{fill:#8EEDB4;}
	.st15{fill:#6F9300;}
	.st16{fill:#F9CE62;}
	.st17{fill:#293F3F;}
	.st18{opacity:0.42;fill:#293F3F;}
	.st19{opacity:6.000000e-02;fill:#98A0A0;}
	.st20{opacity:0.3;fill:#98A0A0;}
	.st21{fill:#F4912F;}
	.st22{opacity:0.24;fill:#F230F2;}
	.st23{opacity:0.17;fill:#307FF2;}
</style>
<rect class="st0" width="70.9" height="70.9"/>
<rect x="70.9" class="st1" width="70.9" height="70.9"/>
<rect y="70.9" class="st2" width="70.9" height="70.9"/>
<rect x="70.9" y="70.9" class="st3" width="70.9" height="70.9"/>
<g>
	<path class="st4" d="M52.2,35.4c0,9.3-7.5,16.8-16.8,16.8h-0.2c0.6-1.2,1.1-2.8,0.9-4.6c-0.3-3.6-2.9-6-3.2-6.3
		c-1.6-1.4-2.4-1.1-5.1-3.1c-1.8-1.3-2.8-2.1-3.3-3.2c2.2-1.6,3.1-5.9,6.8-6.5c2.8-0.4,4,1.7,6.8,2.8c-0.7,0.8-1.3,1.8-1.5,2.9
		c-0.4,2.6,1.5,5.6,4.3,6c3,0.4,5.8-2.3,5.6-3.9c-0.2-1.1-1.9-1-3.4-3.1c-0.4-0.5-0.6-1.1-0.8-1.5c2.9-0.3,5.9-1.7,8.1-3.7
		C51.6,30.3,52.2,32.8,52.2,35.4z"/>
	<path class="st5" d="M36.2,47.6c0.1,1.8-0.3,3.4-0.9,4.6c-9.2-0.1-16.6-7.6-16.6-16.8c0-0.6,0-1.3,0.1-1.9
		C19.6,26,25.5,20,32.9,18.8c0.5,1.2,0.7,2.4,0.7,3.6c0,0.6-0.2,2.6-1.5,3.9c-1.6,1.5-3.3,0.5-5.2,1.9c-1.9,1.4-3,4.3-2.3,6.5
		c0,0.1,0.1,0.2,0.1,0.3c0.5,1.1,1.5,1.9,3.3,3.2c2.7,2,3.5,1.7,5.1,3.1C33.4,41.6,35.9,44,36.2,47.6z"/>
	<path class="st6" d="M50.5,28.1c-2.3,1.9-5.3,3.4-8.1,3.7c-0.3-1-0.3-1.6-0.9-1.9c-0.8-0.3-2.2,0.3-3.3,1.4c-2.7-1.1-4-3.2-6.8-2.8
		c-3.7,0.6-4.7,4.9-6.8,6.5c0-0.1-0.1-0.2-0.1-0.3c-0.7-2.2,0.4-5.1,2.3-6.5c2-1.4,3.6-0.3,5.2-1.9c1.4-1.3,1.5-3.3,1.5-3.9
		c0.1-1.2-0.2-2.4-0.7-3.6c0.8-0.1,1.7-0.2,2.5-0.2C42.1,18.7,47.8,22.5,50.5,28.1z"/>
	<path class="st7" d="M41,40.2c-2.8-0.4-4.7-3.4-4.3-6c0.2-1.1,0.8-2.2,1.5-2.9c1.1-1.1,2.5-1.7,3.3-1.4c0.6,0.2,0.6,0.9,0.9,1.9
		c0.2,0.4,0.4,1,0.8,1.5c1.5,2.1,3.2,2,3.4,3.1C46.8,37.9,44,40.6,41,40.2z"/>
</g>
<g>
	<path class="st8" d="M118.3,23.3c-2.6,0.4-5.1,0.9-7.7,1.3c-0.3,1.4-0.6,2.8-1,4.1c-0.8,0.7-1.5,1.5-2.3,2.2
		c-1.4-1.6-2.9-3.3-4.3-4.9c0.8-2.6,1.5-5.1,2.2-7.7c0.3,0,0.7,0,1,0C111,18.2,115.3,20.1,118.3,23.3z"/>
	<path class="st9" d="M99.2,19.8c-0.5,2.7-1,5.3-1.5,8c-2.6,1.4-5.3,2.7-7.9,4.1C90.8,26.5,94.4,22,99.2,19.8z"/>
	<path class="st9" d="M105,33.2c-0.2,0.2-0.4,0.4-0.6,0.6c-0.1-0.2-0.2-0.4-0.4-0.7C104.3,33.1,104.6,33.2,105,33.2z"/>
	<path class="st10" d="M107.3,51.7c-0.3,0-0.7,0-1,0c-6.7,0-12.5-3.9-15.1-9.6l9.2-0.2c-0.5-2.5-1.1-5-1.7-7.5
		c1.4,0.2,2.9,0.4,4.3,0.6c-0.7,0.6-1.3,1.2-1.9,1.8c1.7,0.8,3.4,1.6,5.1,2.3c-0.8,0.6-1.5,1.3-2.2,1.9c-0.8,1.2-1.6,2.4-2.3,3.6
		c1.8,0.3,3.7,0.6,5.5,0.8C107.1,47.6,107.2,49.7,107.3,51.7z"/>
	<path class="st11" d="M123.1,35c0,2.7-0.7,5.3-1.8,7.6c-0.1-1-0.2-2.1-0.4-3.1c-1.5-0.6-3.1-1.2-4.6-1.8c1.7-3.3,3.4-6.6,5.1-9.9
		C122.5,29.9,123.1,32.4,123.1,35z"/>
	<path class="st12" d="M107.4,30.9c-0.8,0.8-1.6,1.5-2.4,2.3c-0.3,0-0.7,0-1,0c-2.4-0.1-4.8-0.2-7.2-0.3c0.3-1.7,0.6-3.4,1-5
		c0.5-2.7,1-5.3,1.5-8c1.9-0.9,3.9-1.4,6.1-1.5c-0.7,2.6-1.5,5.2-2.2,7.7C104.5,27.6,105.9,29.3,107.4,30.9z"/>
	<path class="st13" d="M121.4,27.7c-1.7,3.3-3.4,6.6-5.1,9.9c-0.9,1.7-1.8,3.4-2.6,5.1c-2.5-1.1-5-2.3-7.5-3.4
		c-1.7-0.8-3.4-1.5-5.1-2.3c0.6-0.6,1.3-1.2,1.9-1.8c0.8,0.1,1.5,0.2,2.3,0.3c-0.3-0.6-0.6-1.1-0.9-1.7c0.2-0.2,0.4-0.4,0.6-0.6
		c0.8-0.8,1.6-1.5,2.4-2.3c0.8-0.7,1.5-1.5,2.3-2.2c0.3-1.4,0.6-2.8,1-4.1c2.6-0.4,5.1-0.9,7.7-1.3C119.6,24.6,120.6,26,121.4,27.7z
		"/>
	<path class="st14" d="M121.3,42.5c-2.6,5.2-7.8,8.8-14,9.2c-0.1-2-0.2-4.1-0.3-6.1c-1.8-0.3-3.7-0.5-5.5-0.8
		c0.8-1.2,1.6-2.4,2.3-3.6c0.8-0.6,1.5-1.3,2.2-1.9c2.5,1.2,5,2.3,7.5,3.4c0.9-1.7,1.8-3.4,2.6-5.1c1.5,0.6,3.1,1.2,4.6,1.8
		C121,40.5,121.2,41.5,121.3,42.5z"/>
	<path class="st15" d="M103,35.1c-1.4-0.2-2.9-0.4-4.3-0.6c0.5,2.5,1.1,5,1.7,7.5l-9.2,0.2c-1-2.2-1.6-4.6-1.6-7.2
		c0-1.1,0.1-2.1,0.3-3.1c2.6-1.4,5.3-2.7,7.9-4.1c-0.3,1.7-0.6,3.4-1,5c2.4,0.1,4.8,0.2,7.2,0.3c0.1,0.2,0.2,0.4,0.4,0.7
		c0.3,0.5,0.6,1.1,0.9,1.7C104.5,35.3,103.7,35.2,103,35.1z"/>
</g>
<g>
	<path class="st16" d="M51.7,104.7c0,1.9-0.3,3.7-0.9,5.4c-0.2,0.6-0.4,1.2-0.7,1.8c-0.2,0.4-0.5,0.9-0.7,1.3
		c-0.2,0.4-0.5,0.7-0.7,1.1c-0.2,0.3-0.4,0.6-0.7,0.9c-0.2,0.3-0.5,0.6-0.7,0.8c-0.2,0.2-0.5,0.5-0.7,0.7c-0.2,0.2-0.5,0.4-0.7,0.6
		c-0.2,0.2-0.5,0.4-0.7,0.6c-0.2,0.2-0.4,0.3-0.7,0.5c-0.2,0.2-0.5,0.3-0.7,0.5c-0.2,0.2-0.5,0.3-0.7,0.4c-0.2,0.1-0.5,0.2-0.7,0.4
		c-0.2,0.1-0.5,0.2-0.7,0.3c-0.2,0.1-0.5,0.2-0.7,0.3c-0.2,0.1-0.5,0.2-0.7,0.3c-0.2,0.1-0.5,0.2-0.7,0.2c-1.5,0.4-3.1,0.7-4.7,0.7
		c-9.3,0-16.8-7.5-16.8-16.8c0-9.3,7.5-16.8,16.8-16.8c1.6,0,3.2,0.2,4.7,0.7c0.2,0.1,0.5,0.1,0.7,0.2c0.2,0.1,0.5,0.2,0.7,0.3
		c0.2,0.1,0.5,0.2,0.7,0.3c0.2,0.1,0.5,0.2,0.7,0.3c0.2,0.1,0.5,0.2,0.7,0.4c0.2,0.1,0.5,0.3,0.7,0.4c0.2,0.2,0.5,0.3,0.7,0.5
		c0.2,0.2,0.5,0.3,0.7,0.5c0.2,0.2,0.5,0.4,0.7,0.6c0.2,0.2,0.5,0.4,0.7,0.6c0.2,0.2,0.5,0.5,0.7,0.7c0.2,0.3,0.5,0.5,0.7,0.8
		c0.2,0.3,0.5,0.6,0.7,0.9c0.2,0.4,0.5,0.7,0.7,1.1c0.3,0.4,0.5,0.9,0.7,1.3c0.3,0.6,0.5,1.1,0.7,1.8
		C51.4,101,51.7,102.8,51.7,104.7z"/>
	<ellipse class="st17" cx="34.6" cy="115.2" rx="2.2" ry="2.7"/>
	<ellipse class="st18" cx="35.1" cy="115.2" rx="2.2" ry="2.7"/>
	<ellipse class="st19" cx="34.4" cy="115.3" rx="1.9" ry="2.6"/>
	<ellipse transform="matrix(0.2389 -0.971 0.971 0.2389 -78.2176 108.4748)" class="st17" cx="30.1" cy="104.1" rx="3" ry="2.4"/>
	<ellipse transform="matrix(0.2389 -0.971 0.971 0.2389 -77.484 108.1441)" class="st18" cx="30.2" cy="103.5" rx="3" ry="2.4"/>
	<ellipse transform="matrix(0.2389 -0.971 0.971 0.2389 -78.5511 108.7494)" class="st19" cx="30.1" cy="104.5" rx="2.7" ry="2.3"/>
	<ellipse transform="matrix(0.5106 -0.8598 0.8598 0.5106 -68.05 87.7126)" class="st17" cx="43" cy="103.6" rx="2.2" ry="2.7"/>
	
		<ellipse transform="matrix(0.5106 -0.8598 0.8598 0.5106 -67.5822 87.7212)" class="st18" cx="43.3" cy="103.2" rx="2.2" ry="2.7"/>
	<ellipse transform="matrix(0.5106 -0.8598 0.8598 0.5106 -68.2943 87.8137)" class="st19" cx="43" cy="103.9" rx="1.9" ry="2.6"/>
	
		<ellipse transform="matrix(0.9984 -5.705798e-02 5.705798e-02 0.9984 -5.3806 1.9147)" class="st17" cx="30.8" cy="95.2" rx="3" ry="2.4"/>
	
		<ellipse transform="matrix(0.9984 -5.705798e-02 5.705798e-02 0.9984 -5.3774 1.952)" class="st18" cx="31.5" cy="95.1" rx="3" ry="2.4"/>
	
		<ellipse transform="matrix(0.9984 -5.705743e-02 5.705743e-02 0.9984 -5.3876 1.8958)" class="st19" cx="30.5" cy="95.3" rx="2.7" ry="2.3"/>
	<ellipse transform="matrix(0.6475 -0.762 0.762 0.6475 -72.351 54.4933)" class="st17" cx="22.7" cy="105.5" rx="1.2" ry="1.2"/>
	<ellipse transform="matrix(0.6475 -0.762 0.762 0.6475 -72.1409 54.5517)" class="st18" cx="22.9" cy="105.3" rx="1.2" ry="1.2"/>
	<ellipse transform="matrix(0.6475 -0.762 0.762 0.6475 -72.4705 54.5018)" class="st19" cx="22.7" cy="105.6" rx="1.1" ry="1.2"/>
	<ellipse transform="matrix(0.9773 -0.2119 0.2119 0.9773 -18.6621 10.3687)" class="st17" cx="39" cy="92.3" rx="0.9" ry="1.2"/>
	<ellipse transform="matrix(0.9773 -0.2119 0.2119 0.9773 -18.6494 10.407)" class="st18" cx="39.2" cy="92.2" rx="0.9" ry="1.2"/>
	<ellipse transform="matrix(0.9773 -0.2119 0.2119 0.9773 -18.6782 10.3521)" class="st19" cx="39" cy="92.3" rx="0.8" ry="1.2"/>
	<ellipse transform="matrix(0.805 -0.5933 0.5933 0.805 -49.8379 42.052)" class="st20" cx="39" cy="96.8" rx="1.7" ry="1.4"/>
	<ellipse class="st20" cx="25" cy="111.2" rx="1.4" ry="1.2"/>
	
		<ellipse transform="matrix(0.8701 -0.4929 0.4929 0.8701 -50.8998 35.2236)" class="st17" cx="41.4" cy="114.2" rx="1.6" ry="1.6"/>
	<ellipse transform="matrix(0.8701 -0.4929 0.4929 0.8701 -50.775 35.3515)" class="st18" cx="41.7" cy="114" rx="1.6" ry="1.6"/>
	
		<ellipse transform="matrix(0.8701 -0.4929 0.4929 0.8701 -50.9862 35.1785)" class="st19" cx="41.2" cy="114.3" rx="1.4" ry="1.5"/>
	
		<ellipse transform="matrix(0.5106 -0.8598 0.8598 0.5106 -74.7166 85.6129)" class="st17" cx="37.8" cy="108.4" rx="2.8" ry="3.2"/>
	<ellipse transform="matrix(0.5106 -0.8598 0.8598 0.5106 -74.1147 85.624)" class="st18" cx="38.2" cy="107.9" rx="2.8" ry="3.2"/>
	<ellipse transform="matrix(0.5106 -0.8598 0.8598 0.5106 -75.0307 85.7295)" class="st19" cx="37.8" cy="108.8" rx="2.5" ry="3"/>
	
		<ellipse transform="matrix(0.8701 -0.4929 0.4929 0.8701 -46.1709 37.6824)" class="st17" cx="48.4" cy="106.4" rx="1.6" ry="1.6"/>
	
		<ellipse transform="matrix(0.8701 -0.4929 0.4929 0.8701 -46.0461 37.8103)" class="st18" cx="48.7" cy="106.3" rx="1.6" ry="1.6"/>
	
		<ellipse transform="matrix(0.8701 -0.4929 0.4929 0.8701 -46.2573 37.6373)" class="st19" cx="48.3" cy="106.6" rx="1.4" ry="1.5"/>
	<ellipse transform="matrix(0.3888 -0.9213 0.9213 0.3888 -75.3867 83.4299)" class="st16" cx="25.2" cy="98.5" rx="1.9" ry="1.9"/>
	<ellipse transform="matrix(0.3888 -0.9213 0.9213 0.3888 -75.473 82.9722)" class="st16" cx="24.8" cy="98.4" rx="1.9" ry="1.9"/>
	<ellipse transform="matrix(0.3888 -0.9213 0.9213 0.3888 -75.2615 83.6514)" class="st20" cx="25.4" cy="98.5" rx="1.8" ry="1.7"/>
	<ellipse transform="matrix(0.5934 -0.8049 0.8049 0.5934 -58.5262 75.6991)" class="st17" cx="45.7" cy="95.8" rx="1.6" ry="2.6"/>
	<ellipse transform="matrix(0.5934 -0.8049 0.8049 0.5934 -58.4422 75.203)" class="st18" cx="45.2" cy="95.5" rx="1.6" ry="2.6"/>
	<ellipse transform="matrix(0.5934 -0.8049 0.8049 0.5934 -58.5156 75.9653)" class="st19" cx="45.9" cy="95.9" rx="1.5" ry="2.3"/>
</g>
<g>
	<g>
		<path class="st21" d="M123.2,107.2h-1.9c0.1,0.6,0.2,1.1,0.3,1.7c-0.8,0.3-1.7,0.7-2.5,1c0.4,0.6,0.9,1.2,1.3,1.8
			c-0.5,0.3-1,0.7-1.5,1c0.7,0.3,1.3,0.7,2,1c-0.8,1.4-1.8,2.6-2.9,3.7c-2.4-1.9-4.8-3.9-7.3-5.8c-0.4,0.6-0.8,1.2-1.1,1.8
			c-1-0.9-2-1.7-2.9-2.6c-1.7,3.5-3.3,7.1-5,10.6c-1.9-0.6-3.8-1.5-5.3-2.7c1.4-2.5,2.8-4.9,4.2-7.4c-0.8-0.3-1.6-0.5-2.4-0.8
			c2.2-2.3,4.3-4.6,6.5-6.9c-0.6-0.6-1.1-1.1-1.7-1.7c0.8-1.4,1.5-2.8,2.2-4.2c-1.7,0.6-3.5,1.1-5.2,1.7c-1.9-1.9-3.9-3.8-5.8-5.8
			c1-1.1,2.2-2,3.5-2.8c1.2,1.5,2.4,3.1,3.6,4.6c1.1-1.1,2.2-2.2,3.4-3.3c1.8,1,3.6,2.1,5.4,3.2c1.3-1.7,2.6-3.5,3.9-5.2
			c0.9,0.4,1.7,0.9,2.4,1.5c-2.1,2.2-4.1,4.4-6.2,6.6c0.6,1.4,1.3,2.8,1.9,4.3c-1.8,1.2-3.7,2.3-5.5,3.5c5.5-0.4,11.1-0.8,16.6-1.2
			c0,0.1,0,0.2,0,0.3C123.3,105.9,123.3,106.5,123.2,107.2z"/>
		<path class="st21" d="M114.8,88.5c-1.3,1.7-2.6,3.5-3.9,5.2c-1.8-1.1-3.6-2.1-5.4-3.2c-1.1,1.1-2.2,2.2-3.4,3.3
			c-1.2-1.5-2.4-3.1-3.6-4.6c2.5-1.6,5.5-2.5,8.8-2.5C110,86.7,112.6,87.4,114.8,88.5z"/>
		<path class="st21" d="M108.8,105.4c1.8-1.2,3.7-2.3,5.5-3.5c-0.6-1.4-1.3-2.8-1.9-4.3c2.1-2.2,4.1-4.4,6.2-6.6
			c4.1,3,6.7,7.8,6.8,13.2C119.9,104.6,114.3,105,108.8,105.4z"/>
		<path class="st21" d="M118.1,118.6c-3,2.9-7.1,4.7-11.6,4.7c-1.6,0-3.2-0.2-4.7-0.7c1.7-3.5,3.3-7.1,5-10.6c1,0.9,2,1.7,2.9,2.6
			c0.4-0.6,0.8-1.2,1.1-1.8C113.3,114.7,115.7,116.7,118.1,118.6z"/>
		<path class="st21" d="M124.4,107.2c-0.3,2.3-1,4.5-2.1,6.5c-0.7-0.3-1.3-0.7-2-1c0.5-0.3,1-0.7,1.5-1c-0.5-0.6-0.9-1.2-1.3-1.8
			c0.8-0.3,1.6-0.7,2.5-1c-0.1-0.6-0.2-1.1-0.3-1.7H124.4z"/>
		<path class="st21" d="M102.2,104.6c-2.2,2.3-4.4,4.6-6.5,6.9c0.8,0.3,1.6,0.5,2.4,0.8c-1.4,2.5-2.8,4.9-4.2,7.4
			c-4.1-3.1-6.7-7.9-6.7-13.4c0-4.5,1.7-8.5,4.6-11.5c2,1.9,3.9,3.8,5.8,5.8c1.7-0.6,3.4-1.1,5.2-1.7c-0.8,1.4-1.5,2.8-2.2,4.2
			C101.1,103.5,101.6,104.1,102.2,104.6z"/>
	</g>
	<g>
		<path class="st22" d="M122.1,106.3h-1.9c0.1,0.6,0.2,1.1,0.3,1.7c-0.8,0.3-1.7,0.7-2.5,1c0.4,0.6,0.9,1.2,1.3,1.8
			c-0.5,0.3-1,0.7-1.5,1c0.7,0.3,1.3,0.7,2,1c-0.8,1.4-1.8,2.6-2.9,3.7c-2.4-1.9-4.8-3.9-7.3-5.8c-0.4,0.6-0.8,1.2-1.1,1.8
			c-1-0.9-2-1.7-2.9-2.6c-1.7,3.5-3.3,7.1-5,10.6c-1.9-0.6-3.8-1.5-5.3-2.7c1.4-2.5,2.8-4.9,4.2-7.4c-0.8-0.3-1.6-0.5-2.4-0.8
			c2.2-2.3,4.3-4.6,6.5-6.9c-0.6-0.6-1.1-1.1-1.7-1.7c0.8-1.4,1.5-2.8,2.2-4.2c-1.7,0.6-3.5,1.1-5.2,1.7c-1.9-1.9-3.9-3.8-5.8-5.8
			c1-1.1,2.2-2,3.5-2.8c1.2,1.5,2.4,3.1,3.6,4.6c1.1-1.1,2.2-2.2,3.4-3.3c1.8,1,3.6,2.1,5.4,3.2c1.3-1.7,2.6-3.5,3.9-5.2
			c0.9,0.4,1.7,0.9,2.4,1.5c-2.1,2.2-4.1,4.4-6.2,6.6c0.6,1.4,1.3,2.8,1.9,4.3c-1.8,1.2-3.7,2.3-5.5,3.5c5.5-0.4,11.1-0.8,16.6-1.2
			c0,0.1,0,0.2,0,0.3C122.2,105.1,122.2,105.7,122.1,106.3z"/>
		<path class="st22" d="M113.7,87.7c-1.3,1.7-2.6,3.5-3.9,5.2c-1.8-1.1-3.6-2.1-5.4-3.2c-1.1,1.1-2.2,2.2-3.4,3.3
			c-1.2-1.5-2.4-3.1-3.6-4.6c2.5-1.6,5.5-2.5,8.8-2.5C108.9,85.9,111.5,86.5,113.7,87.7z"/>
		<path class="st22" d="M107.7,104.6c1.8-1.2,3.7-2.3,5.5-3.5c-0.6-1.4-1.3-2.8-1.9-4.3c2.1-2.2,4.1-4.4,6.2-6.6
			c4.1,3,6.7,7.8,6.8,13.2C118.8,103.8,113.2,104.2,107.7,104.6z"/>
		<path class="st22" d="M117,117.8c-3,2.9-7.1,4.7-11.6,4.7c-1.6,0-3.2-0.2-4.7-0.7c1.7-3.5,3.3-7.1,5-10.6c1,0.9,2,1.7,2.9,2.6
			c0.4-0.6,0.8-1.2,1.1-1.8C112.2,113.9,114.6,115.8,117,117.8z"/>
		<path class="st22" d="M123.3,106.3c-0.3,2.3-1,4.5-2.1,6.5c-0.7-0.3-1.3-0.7-2-1c0.5-0.3,1-0.7,1.5-1c-0.5-0.6-0.9-1.2-1.3-1.8
			c0.8-0.3,1.6-0.7,2.5-1c-0.1-0.6-0.2-1.1-0.3-1.7H123.3z"/>
		<path class="st22" d="M101.1,103.8c-2.2,2.3-4.4,4.6-6.5,6.9c0.8,0.3,1.6,0.5,2.4,0.8c-1.4,2.5-2.8,4.9-4.2,7.4
			c-4.1-3.1-6.7-7.9-6.7-13.4c0-4.5,1.7-8.5,4.6-11.5c2,1.9,3.9,3.8,5.8,5.8c1.7-0.6,3.4-1.1,5.2-1.7c-0.8,1.4-1.5,2.8-2.2,4.2
			C100,102.6,100.5,103.2,101.1,103.8z"/>
	</g>
	<g>
		<path class="st23" d="M124.6,107.1h-1.9c0.1,0.6,0.2,1.1,0.3,1.7c-0.8,0.3-1.7,0.7-2.5,1c0.4,0.6,0.9,1.2,1.3,1.8
			c-0.5,0.3-1,0.7-1.5,1c0.7,0.3,1.3,0.7,2,1c-0.8,1.4-1.8,2.6-2.9,3.7c-2.4-1.9-4.8-3.9-7.3-5.8c-0.4,0.6-0.8,1.2-1.1,1.8
			c-1-0.9-2-1.7-2.9-2.6c-1.7,3.5-3.3,7.1-5,10.6c-1.9-0.6-3.8-1.5-5.3-2.7c1.4-2.5,2.8-4.9,4.2-7.4c-0.8-0.3-1.6-0.5-2.4-0.8
			c2.2-2.3,4.3-4.6,6.5-6.9c-0.6-0.6-1.1-1.1-1.7-1.7c0.8-1.4,1.5-2.8,2.2-4.2c-1.7,0.6-3.5,1.1-5.2,1.7c-1.9-1.9-3.9-3.8-5.8-5.8
			c1-1.1,2.2-2,3.5-2.8c1.2,1.5,2.4,3.1,3.6,4.6c1.1-1.1,2.2-2.2,3.4-3.3c1.8,1,3.6,2.1,5.4,3.2c1.3-1.7,2.6-3.5,3.9-5.2
			c0.9,0.4,1.7,0.9,2.4,1.5c-2.1,2.2-4.1,4.4-6.2,6.6c0.6,1.4,1.3,2.8,1.9,4.3c-1.8,1.2-3.7,2.3-5.5,3.5c5.5-0.4,11.1-0.8,16.6-1.2
			c0,0.1,0,0.2,0,0.3C124.7,105.9,124.7,106.5,124.6,107.1z"/>
		<path class="st23" d="M116.3,88.5c-1.3,1.7-2.6,3.5-3.9,5.2c-1.8-1.1-3.6-2.1-5.4-3.2c-1.1,1.1-2.2,2.2-3.4,3.3
			c-1.2-1.5-2.4-3.1-3.6-4.6c2.5-1.6,5.5-2.5,8.8-2.5C111.4,86.7,114,87.4,116.3,88.5z"/>
		<path class="st23" d="M110.2,105.4c1.8-1.2,3.7-2.3,5.5-3.5c-0.6-1.4-1.3-2.8-1.9-4.3c2.1-2.2,4.1-4.4,6.2-6.6
			c4.1,3,6.7,7.8,6.8,13.2C121.3,104.6,115.8,105,110.2,105.4z"/>
		<path class="st23" d="M119.5,118.6c-3,2.9-7.1,4.7-11.6,4.7c-1.6,0-3.2-0.2-4.7-0.7c1.7-3.5,3.3-7.1,5-10.6c1,0.9,2,1.7,2.9,2.6
			c0.4-0.6,0.8-1.2,1.1-1.8C114.7,114.7,117.1,116.6,119.5,118.6z"/>
		<path class="st23" d="M125.8,107.1c-0.3,2.3-1,4.5-2.1,6.5c-0.7-0.3-1.3-0.7-2-1c0.5-0.3,1-0.7,1.5-1c-0.5-0.6-0.9-1.2-1.3-1.8
			c0.8-0.3,1.6-0.7,2.5-1c-0.1-0.6-0.2-1.1-0.3-1.7H125.8z"/>
		<path class="st23" d="M103.6,104.6c-2.2,2.3-4.4,4.6-6.5,6.9c0.8,0.3,1.6,0.5,2.4,0.8c-1.4,2.5-2.8,4.9-4.2,7.4
			c-4.1-3.1-6.7-7.9-6.7-13.4c0-4.5,1.7-8.5,4.6-11.5c2,1.9,3.9,3.8,5.8,5.8c1.7-0.6,3.4-1.1,5.2-1.7c-0.8,1.4-1.5,2.8-2.2,4.2
			C102.5,103.5,103,104,103.6,104.6z"/>
	</g>
</g>
</svg>
